<svg width="504" height="503" viewBox="0 0 504 503" fill="none" xmlns="http://www.w3.org/2000/svg">
<path d="M338.768 360.819C346.061 360.819 348.995 364.004 342.289 365.262C335.582 366.519 332.061 368.196 338.516 368.867C344.971 369.537 378.337 368.196 382.193 372.471C385.966 376.747 289.054 377.334 268.18 377.334C247.305 377.334 221.401 377.25 195.832 373.897C181.915 372.052 174.622 364.507 184.933 363.166C210.083 359.729 331.39 360.819 338.768 360.819Z" fill="#C5DFFF"/>
<path d="M180.323 376.244C183.844 376.244 185.185 379.933 181.999 381.358C178.814 382.783 156.598 395.274 146.705 395.274C136.813 395.274 136.645 393.849 133.963 391.083C131.28 388.4 119.124 385.969 112.418 385.717C105.711 385.466 102.106 380.436 106.968 378.843C119.04 374.987 176.802 376.244 180.323 376.244Z" fill="#C5DFFF"/>
<path d="M404.577 377.837C405.918 377.921 407.762 379.849 407.092 381.777C405.247 386.723 399.631 389.657 391.247 389.322C378.085 388.819 377.582 380.268 383.535 378.759C388.648 377.334 403.235 377.753 404.577 377.837Z" fill="#C5DFFF"/>
<path d="M186.023 374.651L141.591 393.094C141.591 393.094 132.034 392.591 120.465 386.723C112.082 382.448 102.777 370.04 102.777 370.04L107.639 369.286L156.849 361.238C156.849 361.238 158.777 363.92 164.981 368.615C165.819 369.286 166.909 369.873 168.083 370.459C175.041 373.561 186.023 374.651 186.023 374.651Z" fill="#FF97C9"/>
<path d="M186.023 374.651L172.945 380.1L141.508 393.094C141.508 393.094 131.951 392.591 120.382 386.723C116.861 384.963 113.172 381.693 110.07 378.507C105.795 374.148 102.693 370.04 102.693 370.04L107.555 369.286C113.507 371.298 122.897 373.561 134.801 373.729C149.304 373.98 161.544 371.801 167.999 370.376C175.041 373.561 186.023 374.651 186.023 374.651Z" fill="#FC75BC"/>
<path d="M173.029 380.016L141.592 393.011C141.592 393.011 132.035 392.508 120.466 386.639C116.945 384.879 113.256 381.609 110.154 378.424C117.615 380.1 127.927 381.777 140.418 381.945C153.161 382.196 164.562 381.19 173.029 380.016Z" fill="#F45BB3"/>
<path d="M143.268 390.328C142.933 390.999 141.675 391.502 140.502 391.502C139.328 391.502 138.741 390.999 139.076 390.328C139.412 389.657 140.669 389.154 141.843 389.154C143.017 389.154 143.603 389.741 143.268 390.328Z" fill="#FF97C9"/>
<path d="M180.323 375.657C179.987 376.328 178.73 376.831 177.556 376.831C176.382 376.831 175.796 376.328 176.131 375.657C176.466 374.987 177.724 374.484 178.897 374.484C180.071 374.567 180.658 375.07 180.323 375.657Z" fill="#FF97C9"/>
<path d="M157.101 363.837C156.681 364.423 155.424 364.843 154.25 364.675C153.077 364.591 152.49 364.004 152.909 363.417C153.328 362.831 154.586 362.411 155.759 362.579C157.017 362.663 157.604 363.25 157.101 363.837Z" fill="#FC75BC"/>
<path d="M109.986 371.717C109.567 372.304 108.226 372.639 107.136 372.471C105.962 372.304 105.459 371.717 105.878 371.13C106.298 370.543 107.639 370.208 108.729 370.376C109.902 370.543 110.405 371.13 109.986 371.717Z" fill="#FF97C9"/>
<path d="M403.738 373.813L394.684 372.891L387.223 377.753L391.666 383.454L400.972 384.04L406.672 379.01L403.738 373.813ZM397.283 380.771C395.858 380.771 394.684 380.268 393.846 379.597C394.6 378.759 396.026 378.172 397.702 378.172C399.127 378.172 400.301 378.675 401.139 379.346C400.469 380.184 398.96 380.771 397.283 380.771Z" fill="#FF97C9"/>
<path d="M387.223 377.669L387.978 383.957L391.834 387.813L391.582 383.37L387.223 377.669Z" fill="#F45BB3"/>
<path d="M391.834 387.813L400.972 388.4L400.888 383.957L391.583 383.37L391.834 387.813Z" fill="#FC75BC"/>
<path d="M406.589 378.927L406.337 383.202L400.972 388.4L400.888 383.957L406.589 378.927Z" fill="#FFB3DB"/>
<path d="M401.726 378.088C401.726 378.591 401.559 379.01 401.223 379.346C400.469 378.675 399.211 378.172 397.786 378.172C396.109 378.172 394.684 378.675 393.93 379.597C393.343 379.094 393.008 378.507 393.091 377.837C393.091 376.328 395.103 375.07 397.535 375.154C399.798 375.238 401.726 376.495 401.726 378.088Z" fill="#F45BB3"/>
<path d="M203.041 404.58C196.251 407.346 189.712 403.909 189.712 403.909L151.148 422.688C151.065 424.029 150.226 432.915 139.747 435.179C130.19 437.191 126.334 431.574 126.334 431.574L128.346 430.4L138.49 424.448L135.136 420.676L122.729 426.544C122.729 426.544 122.142 425.203 122.142 423.275C122.142 422.436 122.226 421.43 122.561 420.424C123.651 417.239 127.507 412.46 134.298 411.37C141.088 410.28 144.358 412.963 144.358 412.963L185.52 395.442C185.52 395.442 185.604 393.011 187.532 391.083C189.376 389.071 192.73 386.388 197.341 386.807C199.939 386.975 201.868 387.813 202.957 388.484C203.88 388.987 204.299 389.406 204.299 389.406L194.071 394.939L197.76 399.047L207.233 394.101C207.233 394.101 207.987 394.52 208.574 395.861C208.658 396.113 208.742 396.364 208.826 396.616C209.496 398.628 209.832 401.813 203.041 404.58Z" fill="#D2E9FF"/>
<path d="M202.706 405.67C195.915 408.436 189.712 403.993 189.712 403.993L151.148 422.772C151.065 424.113 150.226 432.999 139.747 435.263C130.19 437.275 126.334 431.658 126.334 431.658L128.346 430.484C130.19 431.742 134.549 433.838 141.088 431.574C149.975 428.472 149.136 420.005 149.136 420.005L189.963 401.31C189.963 401.31 195.832 405.837 203.209 402.232C207.568 400.137 208.658 397.538 208.742 395.861C208.826 396.113 208.91 396.364 208.993 396.616C209.496 398.628 209.496 402.819 202.706 405.67Z" fill="#AED8FC"/>
<path d="M139.747 423.526L138.406 424.616L135.053 420.843L122.645 426.712C122.645 426.712 122.058 425.37 122.058 423.442L135.22 418.161L139.747 423.526Z" fill="#AED8FC"/>
<path d="M204.383 389.49L194.155 395.023L193.484 393.681L203.041 388.568C203.88 388.987 204.383 389.49 204.383 389.49Z" fill="#AED8FC"/>
<path d="M232.97 397.957C232.551 399.969 231.628 401.394 230.119 401.981C229.533 402.232 228.778 402.4 228.024 402.316C225.425 402.065 223.916 399.131 224.586 394.184C225.257 389.238 228.191 388.232 230.287 388.651C230.455 388.735 230.623 388.735 230.79 388.819C233.221 389.993 233.473 395.274 232.97 397.957Z" fill="#FF97C9"/>
<path d="M232.97 397.957C232.551 399.969 231.629 401.394 230.12 401.981C227.521 401.646 226.598 398.376 227.185 394.101C227.604 391.083 228.443 389.406 230.79 388.819C233.221 389.993 233.473 395.274 232.97 397.957Z" fill="#F45BB3"/>
<path d="M248.73 396.113C248.814 396.532 248.647 396.951 248.479 397.286C248.06 398.208 247.221 398.879 247.221 398.879L229.7 398.125C229.7 398.125 227.437 395.19 230.371 393.011H231.125L247.724 393.598C247.724 393.681 248.563 394.604 248.73 396.113Z" fill="#FF97C9"/>
<path d="M248.479 397.37C248.06 398.292 247.221 398.963 247.221 398.963L229.7 398.208C229.7 398.208 227.437 395.274 230.371 393.094H231.125C231.042 393.597 231.042 394.855 232.299 395.777C233.473 396.699 243.533 397.202 248.479 397.37Z" fill="#F45BB3"/>
<path d="M296.096 403.657C295.509 403.657 294.839 403.49 294.252 403.238C292.24 402.316 290.731 396.951 290.731 392.759C290.731 390.496 291.066 388.484 291.737 386.891C290.982 386.807 290.228 386.891 289.473 387.142C284.443 388.819 285.533 395.777 285.533 395.777C285.617 396.364 285.198 396.951 284.611 397.035C284.024 397.118 283.437 396.699 283.354 396.112C282.851 393.094 283.354 386.891 288.719 385.046C290.144 384.543 291.569 384.46 292.827 384.795C293.581 383.789 294.503 383.034 295.593 382.531C298.527 381.106 301.294 380.855 303.725 381.777C304.563 380.436 305.653 379.43 306.911 378.927C309.174 378.004 311.354 378.004 313.282 378.927C316.719 380.519 318.396 384.292 318.899 385.885C320.24 389.657 319.653 392.927 319.653 393.094C319.57 393.681 318.983 394.1 318.396 393.933C317.809 393.849 317.39 393.262 317.558 392.675C317.558 392.675 318.061 389.825 316.887 386.555C316.552 385.549 315.126 382.112 312.444 380.855C311.019 380.184 309.51 380.268 307.749 380.939C306.827 381.274 306.156 381.945 305.653 382.783C307.833 384.208 309.51 386.723 310.516 389.825C311.689 393.597 311.186 397.118 309.258 398.46C308.001 399.298 306.492 399.13 305.066 397.957C302.803 396.112 301.545 390.579 302.3 385.885C302.384 385.13 302.635 384.376 302.803 383.705C300.959 383.118 298.863 383.37 296.515 384.46C295.845 384.795 295.342 385.214 294.839 385.717C297.354 387.478 299.198 391.25 299.785 395.945C300.288 400.22 299.114 402.148 298.024 402.903C297.521 403.49 296.851 403.657 296.096 403.657ZM293.749 387.645C293.162 388.987 292.911 390.496 292.911 391.753C292.659 396.532 294.42 400.807 295.174 401.226C295.509 401.394 296.264 401.645 296.851 401.226C297.689 400.556 298.024 398.711 297.773 396.28C297.354 393.178 296.096 389.322 293.749 387.645ZM304.815 384.879C304.647 385.382 304.563 385.969 304.48 386.388C303.809 390.496 305.066 395.274 306.492 396.448C307.162 396.951 307.665 397.118 308.084 396.867C308.923 396.28 309.593 394.017 308.504 390.663C307.749 388.064 306.408 386.052 304.815 384.879Z" fill="#1C3177"/>
<path d="M273.796 435.682C273.796 436.017 273.796 436.352 273.713 436.604C273.042 439.287 271.198 438.784 269.102 438.113C267.006 437.358 255.688 430.233 253.173 428.724C250.658 427.215 248.479 426.292 248.479 426.292L249.82 423.442L251.748 419.167C251.748 419.167 262.73 424.029 267.341 427.215C271.449 430.065 273.796 433.167 273.796 435.682Z" fill="#1C3177"/>
<path d="M273.796 435.682C273.796 436.017 273.796 436.352 273.713 436.604C273.042 439.287 271.198 438.784 269.102 438.113C267.006 437.358 255.688 430.233 253.173 428.724C250.658 427.215 248.479 426.292 248.479 426.292L249.82 423.442C253.76 425.873 262.814 429.562 269.605 433.921C271.114 434.843 272.958 435.766 273.796 435.682Z" fill="#0E2566"/>
<path d="M275.389 444.82C275.389 445.155 275.389 445.49 275.305 445.742C274.635 448.424 272.79 447.921 270.695 447.251C268.599 446.496 251.078 435.849 248.563 434.34C246.048 432.831 243.868 431.909 243.868 431.909L245.209 429.059L247.137 424.783C247.137 424.783 264.323 433.083 268.934 436.352C272.958 439.203 275.305 442.305 275.389 444.82Z" fill="#1C3177"/>
<path d="M275.389 444.82C275.389 445.155 275.389 445.49 275.305 445.742C274.635 448.424 272.79 447.921 270.695 447.251C268.599 446.496 251.078 435.849 248.563 434.34C246.048 432.831 243.868 431.909 243.868 431.909L245.209 429.059C249.149 431.49 269.186 443.394 272.287 444.484C273.461 444.82 274.467 444.903 275.389 444.82Z" fill="#0E2566"/>
<path d="M270.359 450.604C270.359 450.939 270.359 451.275 270.275 451.526C269.605 454.209 267.76 453.706 265.665 453.035C263.569 452.281 246.048 441.634 243.533 440.125C241.018 438.616 238.838 437.694 238.838 437.694L240.179 434.843L242.107 430.568C242.107 430.568 258.874 439.79 263.401 443.059C267.593 445.909 270.359 448.089 270.359 450.604Z" fill="#1C3177"/>
<path d="M270.359 450.604C270.359 450.939 270.359 451.275 270.275 451.526C269.605 454.209 267.76 453.706 265.665 453.035C263.569 452.281 246.048 441.634 243.533 440.125C241.018 438.616 238.838 437.694 238.838 437.694L240.179 434.844C244.119 437.275 264.156 449.179 267.257 450.269C268.515 450.604 269.521 450.688 270.359 450.604Z" fill="#0E2566"/>
<path d="M261.221 451.945C261.221 452.281 261.221 452.616 261.221 452.868C260.718 455.634 258.874 455.215 256.778 454.712C254.682 454.125 236.323 444.82 233.724 443.562C231.125 442.221 228.862 441.466 228.862 441.466L229.952 438.532L232.718 433.502C232.718 433.502 249.233 442.556 254.096 445.406C258.287 448.005 261.054 449.43 261.221 451.945Z" fill="#1C3177"/>
<path d="M261.221 451.945C261.221 452.281 261.221 452.616 261.221 452.868C260.718 455.634 258.874 455.215 256.778 454.712C254.682 454.125 236.323 444.82 233.724 443.562C231.125 442.221 228.862 441.466 228.862 441.466L231.377 437.275C235.485 439.37 254.934 451.023 258.12 451.862C259.377 452.113 260.383 452.113 261.221 451.945Z" fill="#0E2566"/>
<path d="M251.832 419.167C251.832 419.167 249.82 425.286 245.209 432.077C243.449 434.676 241.856 437.023 240.515 438.951C239.844 439.873 239.257 440.712 238.754 441.466C237.245 443.562 236.323 444.82 236.323 444.82C236.323 444.82 230.119 442.975 223.664 439.203C217.209 435.43 211.676 431.071 210.251 429.31C208.49 427.215 209.245 424.197 209.245 424.197C209.245 424.197 209.329 423.442 209.916 422.185C210.586 420.759 211.844 418.747 214.275 416.484C218.97 412.208 223.413 410.699 223.413 410.699L251.832 419.167Z" fill="#1C3177"/>
<path d="M238.754 441.383C237.245 443.478 236.323 444.736 236.323 444.736C236.323 444.736 230.119 442.891 223.664 439.119C217.209 435.346 211.676 430.987 210.251 429.227C208.49 427.131 209.245 424.113 209.245 424.113C209.245 424.113 209.329 423.358 209.916 422.101C215.029 427.801 219.724 431.071 229.03 436.353C231.88 438.029 236.323 440.293 238.754 441.383Z" fill="#0E2566"/>
<path d="M392.002 416.316L315.294 453.035C315.294 453.035 308.588 454.712 303.055 450.101C301.965 449.263 300.959 448.173 300.037 446.748C297.354 442.64 296.683 439.035 296.851 436.269C297.019 433.251 298.025 431.322 298.025 431.322L379.175 395.106C379.175 395.106 383.367 394.855 387.056 397.118C388.481 398.041 389.822 399.298 390.828 401.142C392.002 403.238 392.505 405.502 392.673 407.681C393.176 412.376 392.002 416.316 392.002 416.316Z" fill="#FC75BC"/>
<path d="M392.002 416.316L315.294 453.035C315.294 453.035 308.587 454.712 303.054 450.101L392.756 407.765C393.175 412.376 392.002 416.316 392.002 416.316Z" fill="#F45BB3"/>
<path d="M387.139 397.202L296.851 436.269C297.018 433.251 298.024 431.322 298.024 431.322L379.175 395.106C379.259 395.19 383.451 394.939 387.139 397.202Z" fill="#FF97C9"/>
<path d="M298.025 431.406C298.025 431.406 306.659 426.209 312.863 435.346C320.408 446.496 315.21 453.119 315.21 453.119C315.21 453.119 305.57 456.556 299.953 449.011C294.504 441.466 295.342 435.346 298.025 431.406Z" fill="#F45BB3"/>
<path d="M335.917 443.059C335.833 443.059 335.666 443.059 335.582 442.975C334.744 442.808 334.157 441.885 334.408 441.047C334.408 440.963 335.75 434.927 331.893 429.059C328.121 423.442 323.678 424.029 323.678 424.029C322.839 424.197 322.001 423.526 321.833 422.688C321.666 421.849 322.336 421.011 323.175 420.843C323.426 420.843 329.714 419.921 334.576 427.215C339.271 434.257 337.678 441.466 337.594 441.718C337.342 442.556 336.672 443.059 335.917 443.059Z" fill="#F45BB3"/>
<path d="M357.881 431.658C357.798 431.658 357.63 431.658 357.546 431.574C356.708 431.406 356.121 430.484 356.372 429.646C356.372 429.562 357.63 423.861 354.025 418.328C350.588 413.131 346.564 413.634 346.396 413.634C345.558 413.717 344.72 413.131 344.552 412.292C344.384 411.454 345.055 410.616 345.893 410.448C346.145 410.448 352.013 409.526 356.708 416.568C361.151 423.274 359.558 430.149 359.558 430.4C359.223 431.155 358.552 431.658 357.881 431.658Z" fill="#F45BB3"/>
<path d="M378.756 422.185C378.672 422.185 378.505 422.185 378.421 422.101C377.582 421.933 376.996 421.011 377.247 420.173C377.247 420.089 378.505 414.388 374.9 408.855C371.463 403.574 367.522 404.16 367.439 404.16C366.6 404.328 365.762 403.741 365.594 402.819C365.427 401.981 366.013 401.142 366.936 400.975C367.187 400.975 373.055 400.136 377.582 407.095C381.942 413.801 380.433 420.592 380.349 420.927C380.181 421.682 379.511 422.185 378.756 422.185Z" fill="#F45BB3"/>
<path d="M346.229 324.938C340.193 336.423 330.803 344.89 324.516 345.058C319.821 345.142 318.312 343.381 319.067 338.267C319.318 336.591 319.821 334.579 320.492 332.064C323.342 322.088 328.456 312.866 331.39 308.087C335.749 301.129 343.211 302.303 346.983 305.237C347.57 305.656 348.073 306.159 348.492 306.662C351.678 310.183 351.426 314.878 346.229 324.938Z" fill="#1C3177"/>
<path d="M346.229 324.938C340.193 336.423 330.803 344.89 324.516 345.058C319.821 345.142 318.312 343.381 319.067 338.268C320.156 339.609 322.001 340.699 324.935 340.112C331.139 338.854 342.288 327.285 346.396 316.471C348.073 312.028 348.576 308.842 348.576 306.662C351.678 310.183 351.426 314.878 346.229 324.938Z" fill="#0E2566"/>
<path d="M344.049 309.932C344.3 313.621 340.947 319.405 335.917 323.429C330.887 327.453 327.701 324.519 329.713 317.896C331.809 311.273 336.672 305.321 340.025 305.321C342.205 305.321 343.797 306.914 344.049 309.932Z" fill="#0E2566"/>
<path d="M339.438 316.136C338.851 317.225 338.097 318.064 337.342 318.734C334.911 320.914 332.145 321.417 332.145 321.417C332.145 321.417 311.689 316.052 287.797 289.728C274.551 275.141 268.096 263.321 264.91 255.608C262.311 249.404 261.976 245.883 261.976 245.883C261.976 245.883 262.144 243.62 264.491 241.356C265.916 239.931 268.264 238.422 271.868 237.416C273.88 236.829 275.725 236.662 277.234 236.745C283.018 236.997 285.282 240.769 285.282 240.769C285.282 240.769 286.036 243.033 287.461 246.554C291.066 255.524 299.198 272.794 311.354 284.195C328.456 300.04 339.857 306.076 339.857 306.076C339.857 306.076 340.444 307.752 340.612 310.016C340.863 311.944 340.612 314.124 339.438 316.136Z" fill="#FC75BC"/>
<path d="M337.342 318.734C334.911 320.914 332.144 321.417 332.144 321.417C332.144 321.417 311.689 316.052 287.797 289.728C263.904 263.404 262.06 245.883 262.06 245.883C262.06 245.883 262.227 243.62 264.575 241.356C268.683 251.835 280.335 277.321 303.473 295.68C320.156 308.842 331.055 315.465 337.342 318.734Z" fill="#F45BB3"/>
<path d="M340.696 310.016C333.067 306.243 317.725 297.608 304.228 283.776C288.635 267.68 279.833 244.207 277.318 236.745C283.102 236.997 285.366 240.769 285.366 240.769C285.366 240.769 294.42 268.267 311.522 284.195C328.624 300.04 340.025 306.076 340.025 306.076C340.025 306.076 340.612 307.752 340.696 310.016Z" fill="#FF97C9"/>
<path d="M287.545 246.554C286.288 247.392 284.946 248.314 283.521 249.153C275.306 254.015 268.85 255.356 264.91 255.608C262.311 249.404 261.976 245.883 261.976 245.883C261.976 245.883 262.144 243.62 264.491 241.356C265.916 239.931 268.264 238.422 271.868 237.416C273.88 236.829 275.725 236.662 277.234 236.745C283.018 236.997 285.282 240.769 285.282 240.769C285.282 240.769 286.12 242.949 287.545 246.554Z" fill="#F45BB3"/>
<path d="M272.791 263.824C270.695 263.824 269.27 263.488 269.186 263.488C268.599 263.321 268.264 262.734 268.347 262.231C268.515 261.644 269.018 261.309 269.605 261.392C269.689 261.392 275.809 262.734 281.425 259.38C286.958 256.027 287.545 252.422 287.545 252.422C287.629 251.835 288.132 251.416 288.719 251.5C289.306 251.584 289.725 252.087 289.641 252.674C289.641 252.841 288.97 257.285 282.515 261.225C279.078 263.321 275.389 263.824 272.791 263.824Z" fill="#F45BB3"/>
<path d="M286.12 285.788C285.03 285.788 284.36 285.62 284.276 285.62C283.689 285.453 283.354 284.866 283.521 284.279C283.689 283.692 284.276 283.357 284.863 283.524C285.03 283.608 288.97 284.53 294.252 280.255C299.114 276.315 299.198 272.794 299.198 272.626C299.198 272.039 299.701 271.536 300.288 271.536C300.875 271.536 301.378 272.039 301.378 272.626C301.378 272.794 301.294 277.321 295.593 281.932C291.653 285.201 288.132 285.788 286.12 285.788Z" fill="#F45BB3"/>
<path d="M298.611 299.872C297.941 299.872 297.521 299.369 297.521 298.782C297.521 298.195 298.024 297.692 298.611 297.692C298.779 297.692 303.809 297.692 307.498 294.004C311.102 290.399 310.599 286.375 310.599 286.207C310.516 285.62 310.935 285.117 311.522 285.033C312.108 284.95 312.611 285.369 312.695 285.956C312.695 286.207 313.366 291.237 309.007 295.596C304.815 299.788 299.282 299.872 298.611 299.872Z" fill="#F45BB3"/>
<path d="M314.707 312.279C314.54 312.279 314.456 312.279 314.372 312.279C313.785 312.195 313.366 311.692 313.366 311.106C313.45 310.519 313.953 310.1 314.54 310.1C314.707 310.1 318.312 310.267 321.833 305.908C324.516 302.638 323.594 297.608 323.594 297.525C323.51 296.938 323.845 296.351 324.432 296.267C325.019 296.183 325.606 296.519 325.689 297.105C325.773 297.357 326.779 303.141 323.51 307.249C319.737 311.944 315.797 312.279 314.707 312.279Z" fill="#F45BB3"/>
<path d="M242.024 366.519C237.665 367.861 223.748 368.448 212.515 368.28C202.287 368.112 197.676 366.436 201.281 362.579C201.616 362.16 202.119 361.741 202.706 361.322C208.658 356.543 222.994 352.519 229.784 352.016C236.156 351.513 241.772 350.759 242.946 353.106C243.701 354.615 244.539 357.549 244.707 360.316C244.874 363.166 244.287 365.849 242.024 366.519Z" fill="#1C3177"/>
<path d="M242.024 366.519C237.665 367.861 223.748 368.448 212.515 368.28C202.287 368.112 197.676 366.436 201.281 362.579C204.215 363.418 210.251 364.507 221.401 364.172C234.814 363.753 241.102 362.16 244.623 360.316C244.874 363.166 244.287 365.849 242.024 366.519Z" fill="#0E2566"/>
<path d="M225.928 352.687C219.137 353.525 212.766 357.968 221.149 358.471C231.126 359.058 243.114 354.531 242.108 353.022C241.102 351.429 233.138 351.765 225.928 352.687Z" fill="#0E2566"/>
<path d="M241.269 352.268C241.269 352.268 240.347 354.364 235.736 356.04C235.401 356.208 234.982 356.292 234.479 356.459C231.461 357.382 228.108 357.214 225.593 356.795C223.497 356.459 222.072 356.04 222.072 356.04C222.072 356.04 212.263 336.256 208.91 318.399C205.556 300.543 203.293 286.039 207.736 267.428C208.742 263.404 209.58 260.135 210.419 257.452C213.353 247.811 215.281 246.051 215.281 246.051C215.281 246.051 216.958 245.548 219.389 245.213C222.826 244.71 227.772 244.71 231.209 247.225C232.132 247.895 232.886 248.566 233.641 249.237C237.497 252.841 238.503 256.279 238.503 256.279C238.503 256.279 235.82 260.051 233.138 267.261C230.539 274.303 227.856 284.614 227.772 297.944C227.521 324.854 241.269 352.268 241.269 352.268Z" fill="#FC75BC"/>
<path d="M241.269 352.268C241.269 352.268 240.347 354.364 235.736 356.04C231.293 347.322 225.006 331.812 221.569 308.507C216.958 276.566 229.114 255.776 233.641 249.32C237.497 252.925 238.503 256.362 238.503 256.362C238.503 256.362 228.024 271.117 227.772 298.028C227.521 324.938 241.269 352.268 241.269 352.268Z" fill="#F45BB3"/>
<path d="M225.676 356.795C223.581 356.459 222.155 356.04 222.155 356.04C222.155 356.04 212.347 336.256 208.993 318.399C205.64 300.543 203.377 286.039 207.82 267.428C212.263 248.901 215.365 246.051 215.365 246.051C215.365 246.051 217.042 245.548 219.473 245.213C216.287 251.835 208.826 270.111 210.335 294.171C211.844 318.483 221.736 346.483 225.676 356.795Z" fill="#FF97C9"/>
<path d="M229.784 275.309C229.449 275.309 229.114 275.141 228.946 274.89C228.946 274.89 226.431 271.536 220.144 269.943C213.688 268.351 209.329 269.44 209.329 269.44C208.742 269.608 208.155 269.273 207.988 268.686C207.82 268.099 208.155 267.512 208.742 267.345C208.91 267.261 213.605 266.087 220.647 267.848C227.772 269.608 230.539 273.464 230.707 273.632C231.042 274.135 230.958 274.806 230.455 275.141C230.204 275.225 229.952 275.309 229.784 275.309Z" fill="#F45BB3"/>
<path d="M226.766 297.441C226.515 297.441 226.179 297.357 226.012 297.105C226.012 297.105 223.161 294.339 217.125 293.836C211.006 293.417 207.233 295.177 207.233 295.177C206.73 295.429 206.059 295.177 205.808 294.674C205.556 294.171 205.724 293.501 206.311 293.249C206.479 293.165 210.587 291.153 217.377 291.656C224.251 292.159 227.521 295.429 227.688 295.513C228.108 295.932 228.108 296.602 227.688 297.022C227.269 297.357 227.018 297.441 226.766 297.441Z" fill="#F45BB3"/>
<path d="M217.377 319.154C212.766 319.154 209.748 317.98 209.664 317.896C209.078 317.645 208.826 317.058 209.078 316.471C209.329 315.884 209.916 315.633 210.503 315.884C210.503 315.884 213.856 317.225 218.886 316.89C223.916 316.639 227.689 314.627 227.689 314.627C228.192 314.375 228.862 314.543 229.114 315.046C229.365 315.549 229.198 316.219 228.695 316.471C228.527 316.555 224.503 318.651 218.97 318.986C218.467 319.154 217.88 319.154 217.377 319.154Z" fill="#F45BB3"/>
<path d="M221.904 340.028C217.796 340.028 215.449 338.77 215.365 338.687C214.862 338.435 214.611 337.764 214.946 337.261C215.197 336.758 215.868 336.591 216.371 336.842C216.455 336.842 219.473 338.435 224.838 337.681C230.12 336.926 232.132 334.746 232.132 334.746C232.551 334.327 233.222 334.244 233.641 334.663C234.06 335.082 234.144 335.752 233.725 336.172C233.641 336.255 231.293 338.938 225.09 339.776C224 340.028 222.91 340.028 221.904 340.028Z" fill="#F45BB3"/>
<path d="M238.587 256.279C238.587 256.279 235.904 260.051 233.221 267.261C232.048 266.59 230.79 265.919 229.449 265.165C221.401 260.638 214.61 258.458 210.502 257.452C213.437 247.811 215.365 246.051 215.365 246.051C215.365 246.051 217.041 245.548 219.473 245.213C222.91 244.71 227.856 244.71 231.293 247.225C232.215 247.895 232.97 248.566 233.724 249.237C237.581 252.925 238.587 256.279 238.587 256.279Z" fill="#F45BB3"/>
<path d="M217.042 167.331C217.042 167.331 208.742 188.541 205.221 202.541C201.7 216.541 193.904 246.386 193.904 246.386C193.904 246.386 191.64 248.398 188.454 249.32C187.113 249.656 185.688 249.907 184.179 249.656C179.065 248.817 175.879 244.793 175.879 244.793C175.879 244.793 182.335 226.518 187.197 208.242C192.059 189.882 201.7 157.607 201.7 157.607C207.652 156.936 211.341 157.858 213.604 159.283C218.131 162.218 217.042 167.331 217.042 167.331Z" fill="#FC75BC"/>
<path d="M217.042 167.331C217.042 167.331 208.742 188.541 205.221 202.541C201.7 216.542 193.904 246.386 193.904 246.386C193.904 246.386 191.64 248.398 188.454 249.32C190.299 242.362 193.484 230.458 197.089 216.039C202.203 195.835 211.257 166.828 213.521 159.367C218.131 162.218 217.042 167.331 217.042 167.331Z" fill="#F45BB3"/>
<path d="M195.664 234.817C195.245 234.817 194.826 234.566 194.658 234.146C194.658 234.146 193.149 230.29 189.879 229.536C185.688 228.53 183.34 229.536 183.34 229.536C182.837 229.787 182.167 229.536 181.915 229.033C181.664 228.53 181.915 227.859 182.418 227.607C182.502 227.524 185.352 226.182 190.382 227.44C194.742 228.446 196.586 233.224 196.67 233.392C196.921 233.979 196.586 234.566 196.083 234.817C195.916 234.817 195.832 234.817 195.664 234.817Z" fill="#F45BB3"/>
<path d="M202.119 210.925C201.7 210.925 201.365 210.673 201.113 210.338C201.113 210.338 199.185 206.481 196.083 205.727C192.059 204.805 189.88 205.727 189.88 205.727C189.377 205.978 188.706 205.727 188.454 205.224C188.203 204.721 188.454 204.05 188.957 203.799C189.041 203.715 191.808 202.457 196.67 203.631C200.778 204.637 203.041 209.164 203.125 209.332C203.377 209.835 203.125 210.505 202.622 210.757C202.455 210.841 202.287 210.925 202.119 210.925Z" fill="#F45BB3"/>
<path d="M208.574 187.368C208.155 187.368 207.82 187.116 207.652 186.781C207.652 186.781 205.976 183.427 202.79 182.589C198.766 181.583 196.502 182.589 196.502 182.589C195.999 182.841 195.329 182.589 195.077 182.086C194.826 181.583 195.077 180.912 195.58 180.661C195.664 180.577 198.431 179.32 203.293 180.493C207.401 181.499 209.413 185.607 209.497 185.775C209.748 186.278 209.497 186.948 208.993 187.2C208.91 187.284 208.742 187.368 208.574 187.368Z" fill="#F45BB3"/>
<path d="M193.904 246.302L191.221 263.488C191.221 263.488 189.628 264.075 187.281 264.578C185.688 264.997 183.676 265.332 181.748 265.416C176.047 265.752 173.532 264.913 173.532 264.913C173.532 264.913 172.526 262.734 173.532 255.356C174.454 247.979 176.131 243.955 176.131 243.955C176.131 243.955 178.814 242.446 184.43 242.949C186.526 243.117 188.203 243.536 189.544 243.955C192.562 244.961 193.736 246.135 193.904 246.302Z" fill="#1C3177"/>
<path d="M193.904 246.302L191.221 263.488C191.221 263.488 189.628 264.075 187.281 264.578L189.544 243.955C192.562 244.961 193.736 246.135 193.904 246.302Z" fill="#0E2566"/>
<path d="M189.712 251.584L195.329 258.374C195.329 258.374 197.425 261.811 200.275 259.967C202.203 258.626 200.023 255.775 199.353 254.602C199.185 254.266 196.335 250.41 194.49 247.895C193.233 246.218 190.718 246.302 189.628 248.063C188.957 248.817 188.79 249.991 189.712 251.584Z" fill="#1C3177"/>
<path d="M173.616 264.075C173.616 264.075 174.454 271.285 175.628 274.638C176.802 278.075 178.646 281.764 179.736 282.267C180.826 282.77 181.748 281.68 181.915 280.003C182.083 278.327 180.742 275.225 180.155 271.285C179.568 267.344 179.065 264.326 179.065 264.326C179.065 264.326 175.796 261.141 173.616 264.075Z" fill="#1C3177"/>
<path d="M179.233 264.159C179.233 264.159 180.825 271.788 182.334 275.309C183.843 278.83 186.107 282.686 187.197 283.105C188.287 283.524 189.125 282.351 189.125 280.506C189.125 278.662 187.448 275.56 186.442 271.368C185.436 267.177 185.52 263.74 185.52 263.74C185.52 263.74 181.077 260.805 179.233 264.159Z" fill="#1C3177"/>
<path d="M185.52 262.985C185.52 262.985 187.113 270.111 188.622 273.38C190.131 276.65 192.395 280.255 193.484 280.674C194.574 281.093 195.413 279.919 195.413 278.243C195.413 276.566 193.736 273.632 192.73 269.692C191.724 265.835 190.969 262.901 190.969 262.901C190.969 262.901 187.365 259.883 185.52 262.985Z" fill="#1C3177"/>
<path d="M296.348 216.374C296.348 216.374 295.677 218.973 293.917 222.997C292.408 226.35 290.144 230.793 286.791 235.404C284.192 239.009 277.402 245.045 267.928 249.656C260.719 253.177 252 255.859 242.359 256.027C224.335 256.279 214.443 251.919 209.413 248.314C205.976 245.799 204.718 243.704 204.718 243.704L231.629 235.656L296.348 216.374Z" fill="#FFB3DB"/>
<path d="M267.928 249.656C260.719 253.177 252 255.859 242.359 256.027C224.335 256.279 214.443 251.919 209.413 248.314C205.976 245.799 204.718 243.704 204.718 243.704L231.629 235.656C235.82 238.674 251.246 236.662 269.354 240.853C270.779 241.189 270.108 246.805 267.928 249.656Z" fill="#FC75BC"/>
<path d="M296.348 216.374C296.348 216.374 295.677 218.973 293.917 222.997C292.156 225.009 290.144 227.188 287.713 229.536C278.156 238.841 269.27 244.29 269.27 244.29C269.27 244.29 258.958 247.895 241.856 248.817C229.281 249.488 215.616 248.65 209.245 248.231C205.808 245.716 204.55 243.62 204.55 243.62L296.348 216.374Z" fill="#1C3177"/>
<path d="M269.773 240.434L268.683 240.685C264.91 241.691 251.497 244.877 234.227 245.799C227.101 246.135 221.317 246.051 216.874 245.632C208.574 244.961 204.718 243.62 204.718 243.62L198.011 153.331L203.88 152.241L238.587 145.87C238.587 145.87 245.042 164.649 254.012 190.888C262.898 217.044 269.773 240.434 269.773 240.434Z" fill="#FC75BC"/>
<path d="M296.348 216.374C296.348 216.374 293.414 219.979 287.461 226.099L287.378 226.182C281.342 232.386 269.773 240.434 269.773 240.434H269.689C267.677 233.308 263.737 220.063 259.21 206.482C252.503 186.613 238.587 145.87 238.587 145.87L247.305 133.798L252 127.259C252 127.259 264.407 139.08 275.893 162.469C287.378 185.859 296.348 216.374 296.348 216.374Z" fill="#FF97C9"/>
<path d="M252 127.259L238.587 145.87L197.927 153.331L212.766 137.487L238.754 130.696L252 127.259Z" fill="#FC75BC"/>
<path d="M216.874 245.716C208.574 245.045 204.718 243.704 204.718 243.704L198.011 153.415L203.88 152.325L216.874 245.716Z" fill="#F45BB3"/>
<path d="M238.754 130.696C237.413 133.295 235.569 136.229 232.97 139.079C226.598 146.121 219.556 149.139 219.556 149.139L197.927 153.331L212.682 137.487L238.754 130.696Z" fill="#F45BB3"/>
<path d="M296.348 216.374C296.348 216.374 293.414 219.979 287.462 226.099C283.857 213.607 278.743 197.595 271.952 180.745C262.647 157.439 253.341 142.265 247.305 133.798L252 127.259C252 127.259 264.407 139.08 275.893 162.469C287.378 185.859 296.348 216.374 296.348 216.374Z" fill="#FFB3DB"/>
<path d="M255.018 226.098C255.186 227.272 254.347 228.278 253.174 228.278C252 228.278 250.994 227.356 250.826 226.098C250.659 224.925 251.497 223.919 252.671 223.919C253.844 223.919 254.85 224.925 255.018 226.098Z" fill="#F45BB3"/>
<path d="M243.365 175.631C243.365 176.805 242.527 177.811 241.353 177.811C240.179 177.811 239.257 176.805 239.173 175.631C239.173 174.457 240.012 173.451 241.185 173.451C242.359 173.451 243.281 174.373 243.365 175.631Z" fill="#F45BB3"/>
<path d="M206.646 181.583C206.646 182.673 205.892 183.511 204.886 183.511C203.88 183.511 203.041 182.673 203.041 181.583C203.041 180.493 203.796 179.655 204.802 179.655C205.808 179.655 206.646 180.493 206.646 181.583Z" fill="#FC75BC"/>
<path d="M212.598 229.955C212.598 231.045 211.844 231.883 210.838 231.883C209.832 231.883 208.993 231.045 208.993 229.955C208.993 228.865 209.748 228.027 210.754 228.027C211.676 228.027 212.514 228.865 212.598 229.955Z" fill="#FC75BC"/>
<path d="M273.797 232.805C273.88 234.063 273.042 235.069 271.868 235.069C270.695 235.069 269.689 234.063 269.605 232.805C269.521 231.548 270.359 230.542 271.533 230.542C272.707 230.458 273.713 231.548 273.797 232.805Z" fill="#FC75BC"/>
<path d="M294.084 214.697C294.168 215.619 293.498 216.458 292.575 216.458C291.737 216.458 290.899 215.703 290.899 214.697C290.815 213.775 291.486 212.937 292.408 212.937C293.246 213.02 294.084 213.775 294.084 214.697Z" fill="#FC75BC"/>
<path d="M267.509 154.505C268.683 162.134 264.827 168.254 258.791 168.254C252.755 168.254 246.886 162.05 245.713 154.505C244.539 146.876 248.395 140.756 254.431 140.756C260.467 140.672 266.336 146.876 267.509 154.505Z" fill="#F45BB3"/>
<path d="M266.922 151.571C268.767 157.523 266.922 162.972 262.898 163.643C258.874 164.313 254.096 160.038 252.335 154.002C250.491 148.05 252.335 142.601 256.359 141.93C260.383 141.259 265.078 145.619 266.922 151.571Z" fill="#FF97C9"/>
<path d="M263.318 152.325C264.072 154.756 263.318 157.02 261.641 157.271C259.964 157.523 258.036 155.762 257.282 153.331C256.527 150.9 257.282 148.637 258.958 148.385C260.635 148.05 262.563 149.81 263.318 152.325Z" fill="#F45BB3"/>
<path d="M288.552 164.649C287.546 164.649 286.372 164.481 285.198 164.062C281.677 162.721 280.671 161.798 276.899 158.194C276.06 157.355 275.054 156.433 273.881 155.343C268.432 150.229 262.815 154.002 262.563 154.17C261.809 154.673 260.803 154.505 260.3 153.75C259.797 152.996 259.964 151.99 260.719 151.487C263.485 149.559 270.276 147.463 276.06 152.996C277.234 154.086 278.24 155.092 279.078 155.846C282.683 159.367 283.354 159.954 286.288 161.044C290.48 162.553 292.743 159.535 292.995 159.2C293.498 158.445 294.504 158.277 295.258 158.78C296.013 159.283 296.18 160.289 295.677 161.044C294.755 162.553 292.156 164.649 288.552 164.649Z" fill="#1C3177"/>
<path d="M251.078 221.572L250.659 221.655L239.509 222.913L230.287 223.919L228.191 224.17L221.065 224.925L220.562 225.009L219.221 225.093L211.341 226.015L210.251 217.296L206.311 185.356L213.604 184.182L220.646 183.092H220.73L227.688 182.002L241.102 179.906L243.281 189.296L243.533 190.134L245.629 199.188L246.048 200.697L248.311 210.17L250.994 221.236L251.078 221.572Z" fill="#0E2566"/>
<path d="M251.078 221.571L250.659 221.655L239.509 222.913L230.287 223.919L228.191 224.17L221.066 224.925L220.562 225.009L219.221 225.092L215.281 193.655L222.658 192.565L229.616 191.475L229.7 191.391L236.742 190.302L243.281 189.296L243.533 190.134L245.629 199.188L246.048 200.697L248.311 210.17L250.994 221.236L251.078 221.571Z" fill="#1C3177"/>
<path d="M238.922 217.547C238.922 219.559 239.844 221.404 241.269 222.577L233.389 223.416L231.545 223.583L225.425 224.254L225.257 220.985L225.006 215.032L230.455 214.865C230.622 214.026 230.79 213.188 231.125 212.35L225.928 208.913L231.545 200.445L237.245 204.721C237.916 204.302 238.587 203.966 239.257 203.631L237.581 196.338L241.94 195.248L244.539 194.577L246.383 202.29L246.718 203.631L248.647 211.763C247.724 211.176 246.551 210.925 245.377 210.925C241.94 210.925 238.922 213.943 238.922 217.547Z" fill="#D2E9FF"/>
<path d="M222.323 195.08L215.365 196.086L213.604 184.182L220.646 183.092L222.323 195.08Z" fill="#D2E9FF"/>
<path d="M228.778 190.218L221.736 191.14L220.646 183.092L227.604 182.002L228.778 190.218Z" fill="#AED8FC"/>
<path d="M220.562 225.009L211.341 226.015L210.251 217.296L219.473 216.206L220.562 225.009Z" fill="#AED8FC"/>
<path d="M238.922 217.548C238.922 219.56 239.844 221.404 241.269 222.578L233.389 223.416L231.545 223.584L225.425 224.254L225.341 222.661L235.317 221.739C235.317 221.739 233.724 216.374 236.659 211.344C239.593 206.314 244.371 206.314 244.371 206.314L242.024 195.164L244.623 194.493L246.467 202.206L246.802 203.547L248.731 211.679C247.808 211.092 246.635 210.841 245.461 210.841C241.94 210.925 238.922 213.943 238.922 217.548Z" fill="#AED8FC"/>
<path d="M190.969 199.691C185.436 199.691 182.251 196.254 181.328 194.158C180.909 193.32 181.328 192.397 182.083 191.978C182.921 191.559 183.843 191.978 184.263 192.733C184.346 192.9 186.61 197.26 192.73 196.254C196.251 195.667 197.424 194.074 198.766 192.314C199.939 190.721 201.281 188.876 204.215 188.038C208.407 186.781 212.598 189.882 212.766 190.05C213.437 190.553 213.604 191.643 213.101 192.314C212.598 192.984 211.592 193.152 210.838 192.649C210.754 192.649 207.736 190.385 205.137 191.14C203.293 191.727 202.454 192.817 201.365 194.242C199.939 196.254 198.095 198.685 193.233 199.523C192.478 199.691 191.724 199.691 190.969 199.691Z" fill="#AED8FC"/>
<path d="M197.005 208.745C192.059 211.176 187.7 209.583 185.855 208.158C185.185 207.571 185.017 206.565 185.604 205.895C186.191 205.224 187.197 205.056 187.867 205.643C188.035 205.727 191.975 208.661 197.089 204.972C200.023 202.877 200.359 200.948 200.694 198.685C201.029 196.673 201.448 194.493 203.628 192.397C206.814 189.379 211.928 190.302 212.179 190.385C213.017 190.553 213.604 191.391 213.437 192.23C213.269 193.068 212.431 193.655 211.592 193.487C211.508 193.487 207.82 192.817 205.808 194.745C204.383 196.086 204.131 197.511 203.88 199.272C203.46 201.703 202.957 204.721 198.933 207.655C198.347 207.99 197.676 208.41 197.005 208.745Z" fill="#FEC272"/>
<path d="M237.748 109.235C237.748 109.235 233.557 117.451 225.76 125.331C221.988 129.187 217.377 132.876 211.928 135.559C204.466 139.247 197.508 141.93 192.059 143.69C185.185 145.954 180.742 146.876 180.742 146.876C180.742 146.876 165.987 122.145 163.807 103.367C162.298 90.037 166.825 80.6477 174.789 74.3602C176.801 72.7673 179.065 71.3422 181.496 70.1685C183.089 69.414 184.682 68.7433 186.358 68.0727C201.113 62.7073 214.862 72.6835 221.82 81.2345C228.862 89.8693 237.748 109.235 237.748 109.235Z" fill="#FC75BC"/>
<path d="M192.059 143.69C185.185 145.954 180.742 146.876 180.742 146.876C180.742 146.876 165.987 122.145 163.807 103.367C162.298 90.0371 166.825 80.6477 174.789 74.3602C173.364 81.6537 172.777 91.2107 175.795 101.271C179.568 113.427 186.694 130.948 192.059 143.69Z" fill="#F45BB3"/>
<path d="M199.307 124.971C205.492 122.48 207.939 114.089 204.774 106.23C201.608 98.3705 194.029 94.0184 187.844 96.5093C181.66 99.0002 179.212 107.391 182.378 115.25C185.543 123.11 193.123 127.462 199.307 124.971Z" fill="#FF97C9"/>
<path d="M197.237 123.518C202.605 121.356 204.714 114.033 201.946 107.161C199.178 100.289 192.583 96.4716 187.214 98.6338C181.846 100.796 179.737 108.119 182.505 114.991C185.273 121.863 191.868 125.68 197.237 123.518Z" fill="#1C3177"/>
<path d="M195.69 121.195C200.156 119.396 201.926 113.342 199.643 107.673C197.36 102.004 191.888 98.8666 187.421 100.666C182.955 102.465 181.185 108.519 183.468 114.188C185.751 119.857 191.223 122.994 195.69 121.195Z" fill="#0E2566"/>
<path d="M175.475 133.315C178.696 132.017 179.204 125.743 176.609 119.301C174.014 112.859 169.3 108.688 166.079 109.985C162.858 111.283 162.35 117.557 164.944 123.999C167.539 130.441 172.254 134.612 175.475 133.315Z" fill="#FC75BC"/>
<path d="M173.947 133.369C176.953 132.158 177.441 126.337 175.037 120.368C172.632 114.398 168.246 110.54 165.24 111.751C162.233 112.962 161.745 118.783 164.15 124.753C166.554 130.722 170.94 134.58 173.947 133.369Z" fill="#1C3177"/>
<path d="M172.6 131.374C175.005 130.406 175.384 125.721 173.447 120.911C171.509 116.101 167.989 112.987 165.584 113.955C163.179 114.924 162.8 119.609 164.737 124.419C166.674 129.229 170.195 132.343 172.6 131.374Z" fill="#0E2566"/>
<path d="M215.7 52.3959L211.005 72.432L203.796 71.6775L192.143 70.5039L186.275 69.917L199.353 45.6892C199.353 45.6892 200.694 45.1024 202.622 44.6832C204.634 44.1802 207.149 44.0125 209.329 44.8509C210.586 45.3539 211.676 46.276 212.514 47.1982C214.61 49.5455 215.7 52.3959 215.7 52.3959Z" fill="#FC75BC"/>
<path d="M215.7 52.3958L211.006 72.432L203.796 71.6775L212.515 47.282C214.61 49.5455 215.7 52.3958 215.7 52.3958Z" fill="#F45BB3"/>
<path d="M202.622 44.6832L192.143 70.5039L186.275 69.9171L199.353 45.6892C199.353 45.6892 200.694 45.1024 202.622 44.6832Z" fill="#FF97C9"/>
<path d="M213.017 58.1804C212.514 58.1804 212.095 57.8451 212.011 57.4259C211.928 57.2582 210.754 53.6534 205.221 52.1444C200.862 50.8869 198.263 52.3121 198.263 52.3959C197.76 52.7312 197.089 52.4797 196.754 51.9767C196.418 51.4737 196.67 50.8031 197.173 50.4677C197.341 50.3839 200.61 48.5396 205.808 50.0486C212.514 51.9767 213.94 56.5876 214.023 56.8391C214.191 57.4259 213.856 58.0127 213.269 58.1804C213.269 58.1804 213.101 58.1804 213.017 58.1804Z" fill="#F45BB3"/>
<path d="M211.173 66.5637C210.67 66.5637 210.251 66.2284 210.083 65.7254C210.083 65.5577 209.077 61.5337 202.957 59.6894C196.838 57.8451 194.323 60.1086 194.155 60.2762C193.736 60.6954 193.065 60.6954 192.646 60.2762C192.227 59.8571 192.227 59.1864 192.646 58.7672C192.814 58.5996 196.083 55.4977 203.544 57.6774C210.922 59.9409 212.095 65.0547 212.095 65.3062C212.179 65.8931 211.844 66.4799 211.257 66.5637C211.341 66.5637 211.257 66.5637 211.173 66.5637Z" fill="#F45BB3"/>
<path d="M237.748 109.235C237.748 109.235 233.557 117.451 225.76 125.331C218.802 110.912 206.562 87.1029 198.011 78.7195C192.311 73.1027 186.358 70.923 181.496 70.2524C183.089 69.4979 184.682 68.8272 186.358 68.1565C201.113 62.7912 214.862 72.7674 221.82 81.3184C228.862 89.8694 237.748 109.235 237.748 109.235Z" fill="#FF97C9"/>
<path d="M244.036 115.439C244.036 115.439 235.988 127.762 222.742 137.235C220.982 138.493 219.053 139.75 217.125 140.84C210.083 144.948 202.622 148.05 196.418 150.313C188.119 153.331 182.083 154.756 182.083 154.756L177.807 141.93C177.807 141.93 184.766 139.163 193.736 134.972C194.742 134.469 195.748 133.966 196.838 133.463C207.233 128.433 211.173 125.247 211.173 125.247L210.083 113.762C210.083 113.762 212.011 112.504 214.694 110.66C217.628 108.648 221.401 105.965 224.083 103.702C229.197 99.4264 231.042 95.8215 231.042 95.8215C231.042 95.8215 235.485 101.271 238.838 106.552C242.191 111.75 244.036 115.439 244.036 115.439Z" fill="#FC75BC"/>
<path d="M244.036 115.439C244.036 115.439 235.988 127.762 222.742 137.235L214.61 110.744C217.545 108.732 221.317 106.049 224 103.786C229.114 99.5102 230.958 95.9054 230.958 95.9054C230.958 95.9054 235.401 101.355 238.754 106.636C242.192 111.75 244.036 115.439 244.036 115.439Z" fill="#FF97C9"/>
<path d="M196.502 150.313C188.203 153.331 182.167 154.756 182.167 154.756L177.891 141.93C177.891 141.93 184.849 139.163 193.819 134.972L196.502 150.313Z" fill="#F45BB3"/>
<path d="M231.712 95.6543C232.886 102.948 229.113 108.816 223.413 108.816C217.712 108.816 212.095 102.948 210.921 95.6543C209.748 88.3608 213.52 82.4924 219.221 82.4924C224.922 82.4924 230.538 88.3608 231.712 95.6543Z" fill="#F45BB3"/>
<path d="M231.712 92.9712C233.64 99.4263 231.712 105.295 227.353 106.049C222.993 106.804 217.796 102.109 215.868 95.57C213.939 89.031 215.868 83.2465 220.227 82.492C224.586 81.8213 229.7 86.516 231.712 92.9712Z" fill="#FF97C9"/>
<path d="M228.61 92.3006C229.532 95.2347 228.61 97.8336 226.682 98.1689C224.754 98.5042 222.407 96.4084 221.484 93.4742C220.562 90.5401 221.484 87.9412 223.413 87.6059C225.425 87.3544 227.772 89.4502 228.61 92.3006Z" fill="#FC75BC"/>
<path d="M182.419 189.631C182.083 189.463 181.916 189.212 181.832 188.877L181.077 185.188C180.993 184.601 181.329 184.014 181.916 183.93C182.502 183.847 183.089 184.182 183.173 184.769L183.928 188.457C184.011 189.044 183.676 189.631 183.089 189.715C182.838 189.715 182.586 189.715 182.419 189.631Z" fill="#FEC272"/>
<path d="M178.897 191.727C178.814 191.727 178.814 191.727 178.73 191.643L173.364 189.128C172.861 188.877 172.61 188.29 172.778 187.703C173.029 187.2 173.616 186.948 174.203 187.116L179.568 189.631C180.071 189.883 180.323 190.469 180.155 191.056C179.987 191.643 179.4 191.811 178.897 191.727Z" fill="#FEC272"/>
<path d="M173.7 197.428C173.448 197.344 173.281 197.092 173.197 196.841C173.029 196.254 173.281 195.667 173.867 195.499L178.059 194.158C178.646 193.99 179.233 194.242 179.4 194.829C179.568 195.416 179.317 196.002 178.73 196.17L174.538 197.511C174.203 197.595 173.951 197.595 173.7 197.428Z" fill="#FEC272"/>
<path d="M297.857 154.505C297.605 154.589 297.27 154.505 297.019 154.421C296.516 154.086 296.348 153.415 296.683 152.912L299.114 148.804C299.45 148.301 300.12 148.134 300.623 148.469C301.126 148.804 301.294 149.475 300.959 149.978L298.528 154.086C298.36 154.253 298.108 154.421 297.857 154.505Z" fill="#FEC272"/>
<path d="M299.701 159.703C299.282 159.703 298.863 159.367 298.779 158.948C298.611 158.361 298.947 157.774 299.534 157.607L306.659 155.427C307.246 155.259 307.833 155.595 308.001 156.182C308.168 156.768 307.833 157.355 307.246 157.523L300.12 159.703C299.953 159.703 299.869 159.786 299.701 159.703Z" fill="#FEC272"/>
<path d="M302.384 167.331C302.3 167.331 302.216 167.331 302.049 167.248L299.114 166.074C298.528 165.822 298.276 165.236 298.528 164.649C298.779 164.062 299.366 163.81 299.953 164.062L302.887 165.236C303.474 165.487 303.725 166.074 303.474 166.661C303.306 167.164 302.803 167.415 302.384 167.331Z" fill="#FEC272"/>
<path d="M252.922 112.756C252.838 112.756 252.754 112.756 252.671 112.756C252.084 112.588 251.748 112.085 251.832 111.498L253.761 103.031C253.928 102.444 254.431 102.109 255.018 102.193C255.605 102.36 255.94 102.863 255.856 103.45L253.928 111.917C253.844 112.42 253.425 112.756 252.922 112.756Z" fill="#FEC272"/>
<path d="M258.204 116.361C257.868 116.361 257.449 116.193 257.282 115.858C256.946 115.355 257.114 114.684 257.701 114.349L267.761 108.48C268.264 108.145 268.934 108.313 269.27 108.899C269.605 109.402 269.437 110.073 268.851 110.408L258.791 116.277C258.539 116.277 258.371 116.361 258.204 116.361Z" fill="#FEC272"/>
<path d="M271.366 124.157L260.551 123.57C259.964 123.57 259.461 123.067 259.545 122.481C259.545 121.894 260.048 121.391 260.635 121.475L271.366 122.061C271.952 122.061 272.455 122.564 272.372 123.151C272.455 123.738 271.952 124.157 271.366 124.157Z" fill="#FEC272"/>
</svg>
